<svg id="Capa_1" data-name="Capa 1" xmlns="http://www.w3.org/2000/svg" viewBox="0 0 373.79 72.99"><defs><style>.cls-1{fill:#004987;}.cls-2{fill:#61a60e;}</style></defs><title>BancamigaLogo</title><path class="cls-1" d="M88.54,54.39V14.46h6.27a32.58,32.58,0,0,1,8,.71,10.65,10.65,0,0,1,5.7,3.53,9.23,9.23,0,0,1,2.12,6.08,8.89,8.89,0,0,1-1,4.14,10.42,10.42,0,0,1-3.14,3.48,12.46,12.46,0,0,1,5.32,4.28,10.75,10.75,0,0,1,1.69,6.07,11.28,11.28,0,0,1-1.74,6.13A11.07,11.07,0,0,1,107.31,53a17.09,17.09,0,0,1-7.58,1.37Zm7.6-32.68v8.41H97.8A6.19,6.19,0,0,0,101.93,29a4,4,0,0,0,1.35-3.18,3.72,3.72,0,0,0-1.28-3,5.91,5.91,0,0,0-3.9-1.1Zm0,15.2V47.14H98c3.16,0,5.29-.39,6.39-1.19a4,4,0,0,0,1.64-3.47,4.88,4.88,0,0,0-1.93-4.08q-1.94-1.49-6.42-1.49Z"/><path class="cls-1" d="M139.27,24.86h7.4V54.39h-7.4V51.27a14.34,14.34,0,0,1-4.36,3,12.08,12.08,0,0,1-4.73.91,13.13,13.13,0,0,1-9.89-4.44,15.43,15.43,0,0,1-4.18-11,15.87,15.87,0,0,1,4-11.21A12.87,12.87,0,0,1,130,24.1a12.43,12.43,0,0,1,5,1,13.72,13.72,0,0,1,4.32,3Zm-7.79,6.08a7.48,7.48,0,0,0-5.71,2.43,8.73,8.73,0,0,0-2.28,6.23,8.83,8.83,0,0,0,2.32,6.3,7.51,7.51,0,0,0,5.69,2.47,7.63,7.63,0,0,0,5.79-2.43,8.9,8.9,0,0,0,2.3-6.37,8.63,8.63,0,0,0-2.3-6.24A7.73,7.73,0,0,0,131.48,30.94Z"/><path class="cls-1" d="M151.67,24.86h7.41v3a17.66,17.66,0,0,1,4.56-3,11.14,11.14,0,0,1,4.19-.83,10.14,10.14,0,0,1,7.46,3.07q2.57,2.59,2.57,7.71V54.39h-7.33V41.46a33.12,33.12,0,0,0-.47-7,4.84,4.84,0,0,0-1.66-2.65,4.64,4.64,0,0,0-2.91-.91,5.46,5.46,0,0,0-3.85,1.51,8,8,0,0,0-2.24,4.16,33.39,33.39,0,0,0-.32,6V54.39h-7.41Z"/><path class="cls-1" d="M211.43,30.83l-6.17,3.39A9.16,9.16,0,0,0,197.84,31a9.27,9.27,0,0,0-6.72,2.48,8.48,8.48,0,0,0-2.57,6.36A8.16,8.16,0,0,0,191,46a9,9,0,0,0,6.5,2.39,9.41,9.41,0,0,0,7.74-3.4l5.85,4q-4.76,6.18-13.41,6.18-7.8,0-12.2-4.61a15.34,15.34,0,0,1,3.72-24.38,17.91,17.91,0,0,1,8.59-2.06,17.34,17.34,0,0,1,7.89,1.75A15,15,0,0,1,211.43,30.83Z"/><path class="cls-1" d="M237.41,24.86h7.41V54.39h-7.41V51.27a14.34,14.34,0,0,1-4.36,3,12.08,12.08,0,0,1-4.73.91,13.13,13.13,0,0,1-9.89-4.44,15.43,15.43,0,0,1-4.18-11,15.87,15.87,0,0,1,4-11.21,12.9,12.9,0,0,1,9.82-4.37,12.49,12.49,0,0,1,5,1,13.68,13.68,0,0,1,4.31,3Zm-7.79,6.08a7.48,7.48,0,0,0-5.71,2.43,8.73,8.73,0,0,0-2.28,6.23A8.87,8.87,0,0,0,224,45.9a7.51,7.51,0,0,0,5.69,2.47,7.63,7.63,0,0,0,5.79-2.43,8.85,8.85,0,0,0,2.3-6.37,8.58,8.58,0,0,0-2.3-6.24A7.73,7.73,0,0,0,229.62,30.94Z"/><path class="cls-1" d="M249.75,24.86h7.41v3.39a12.75,12.75,0,0,1,4.23-3.12,12.24,12.24,0,0,1,5.06-1,9.36,9.36,0,0,1,5,1.36,9.83,9.83,0,0,1,3.59,4A11.69,11.69,0,0,1,285,24.1a10.46,10.46,0,0,1,5.54,1.46A8.48,8.48,0,0,1,294,29.39Q295,31.76,295,37.07V54.39h-7.46v-15q0-5-1.25-6.8a4.28,4.28,0,0,0-3.75-1.78,5.61,5.61,0,0,0-3.4,1.09,6.37,6.37,0,0,0-2.25,3,18.83,18.83,0,0,0-.73,6.14V54.39H268.7V40.09a20,20,0,0,0-.59-5.74,5.18,5.18,0,0,0-1.75-2.65,4.62,4.62,0,0,0-2.83-.87,5.61,5.61,0,0,0-3.36,1.1A6.53,6.53,0,0,0,257.91,35a19,19,0,0,0-.75,6.24V54.39h-7.41Z"/><path class="cls-1" d="M302.45,12.7a4.53,4.53,0,0,1,3.34,1.41,4.87,4.87,0,0,1,0,6.8,4.48,4.48,0,0,1-3.3,1.4,4.54,4.54,0,0,1-3.37-1.43,4.75,4.75,0,0,1-1.39-3.46,4.71,4.71,0,0,1,4.71-4.72Zm-3.71,12.16h7.41V54.39h-7.41Z"/><path class="cls-1" d="M332.21,24.86h7.38v25.3q0,7.49-3,11Q332.53,66,324.39,66a21.39,21.39,0,0,1-7.3-1.09,12.71,12.71,0,0,1-8-8.31h8.17a6.72,6.72,0,0,0,2.8,1.89,11.65,11.65,0,0,0,4,.64,10.64,10.64,0,0,0,4.81-.93,5.57,5.57,0,0,0,2.56-2.38,12.06,12.06,0,0,0,.75-5.05,12.39,12.39,0,0,1-4.1,2.81,13,13,0,0,1-4.86.85,13.35,13.35,0,0,1-10-4.29,15,15,0,0,1-4.1-10.85q0-7,4.34-11.3a12.94,12.94,0,0,1,9.39-3.85,12.4,12.4,0,0,1,4.82.94,15.19,15.19,0,0,1,4.55,3.08ZM324.52,31a7.7,7.7,0,0,0-5.78,2.35,8.12,8.12,0,0,0-2.28,5.9,8.26,8.26,0,0,0,2.34,6.06,7.91,7.91,0,0,0,5.86,2.36,7.6,7.6,0,0,0,5.69-2.31,8.34,8.34,0,0,0,2.24-6.05,8.2,8.2,0,0,0-2.26-6A7.74,7.74,0,0,0,324.52,31Z"/><path class="cls-1" d="M366.38,24.86h7.41V54.39h-7.41V51.27a14.34,14.34,0,0,1-4.36,3,12.08,12.08,0,0,1-4.73.91,13.13,13.13,0,0,1-9.89-4.44,15.43,15.43,0,0,1-4.18-11,15.87,15.87,0,0,1,4-11.21,12.89,12.89,0,0,1,9.82-4.37,12.41,12.41,0,0,1,5,1,13.61,13.61,0,0,1,4.32,3Zm-7.79,6.08a7.48,7.48,0,0,0-5.71,2.43,8.72,8.72,0,0,0-2.27,6.23,8.87,8.87,0,0,0,2.31,6.3,7.51,7.51,0,0,0,5.69,2.47,7.63,7.63,0,0,0,5.79-2.43,8.9,8.9,0,0,0,2.3-6.37,8.63,8.63,0,0,0-2.3-6.24A7.73,7.73,0,0,0,358.59,30.94Z"/><path class="cls-2" d="M15.16,7.83a18.37,18.37,0,0,1,8,2,18.78,18.78,0,0,1,6.89,5.64,11.28,11.28,0,0,1,2.21,4.83,8,8,0,0,1-1.7,6.55c-1.5,1.92-3,3.81-4.45,5.82a52.57,52.57,0,0,0-5.51,9.78,31.44,31.44,0,0,0-2.45,9.07,18.56,18.56,0,0,0,1.41,9.73,16.86,16.86,0,0,0,5.73,6.79c.47.33,1,.64,1.44.94.15.09.17.15.08.3s-.37.63-.55.95c-.08.13-.14.17-.29.08a57.29,57.29,0,0,1-9.28-6.65,55.09,55.09,0,0,1-6.32-6.55,48.09,48.09,0,0,1-8-13.9A36.58,36.58,0,0,1,0,30.51,29.36,29.36,0,0,1,3.13,16.93a22.91,22.91,0,0,1,5.23-6.78A9.53,9.53,0,0,1,13.22,8,15,15,0,0,1,15.16,7.83Z"/><path class="cls-2" d="M51.59,73a42.16,42.16,0,0,1-5.89-.39,42.86,42.86,0,0,1-9.34-2.39,39.8,39.8,0,0,1-8-4,14.32,14.32,0,0,1-6-7.85,11.83,11.83,0,0,1,.86-9.49,10.45,10.45,0,0,1,7-5.24,13,13,0,0,1,7.94.75,25.69,25.69,0,0,1,5.34,3.11c3.16,2.23,6.38,4.37,9.73,6.3A57.47,57.47,0,0,0,61.81,58a24.74,24.74,0,0,0,5.08,1.36,10.76,10.76,0,0,0,4.41-.16A6.49,6.49,0,0,0,75.77,55c.08-.22.21-.54.26-.66h0a9.15,9.15,0,0,1,.77.55s0,0,0,0l-.06.23a25.13,25.13,0,0,1-5.37,9.6,23.87,23.87,0,0,1-8,5.81,27.4,27.4,0,0,1-7.25,2.1A28.58,28.58,0,0,1,51.59,73Z"/><path class="cls-2" d="M26.42,0l.82,0c.93.08,1.86.14,2.78.25a46,46,0,0,1,9.35,2.18A53.89,53.89,0,0,1,52.44,9a33.26,33.26,0,0,1,4.8,3.82,13.45,13.45,0,0,1,3.4,5.34,7.37,7.37,0,0,1,.24,4.43A4.61,4.61,0,0,1,56.94,26a8.61,8.61,0,0,1-4.72-.68A21.39,21.39,0,0,1,46.82,22C43.94,19.72,41,17.51,38,15.45A79.26,79.26,0,0,0,24.87,8a33.32,33.32,0,0,0-8-2.46,15.58,15.58,0,0,0-6.76.27,10.69,10.69,0,0,0-3.84,2L6.07,8A0,0,0,0,1,6,8L4.78,7.08a0,0,0,0,1,0,0,27.49,27.49,0,0,1,5-3.36A31.38,31.38,0,0,1,20.79.26c.77-.1,1.55-.15,2.33-.22L24,0h2.38Z"/><path class="cls-2" d="M75.47,43.94a27,27,0,0,1-1.11,8.38,6.33,6.33,0,0,1-2.43,3.55,5.81,5.81,0,0,1-3.94,1A11.52,11.52,0,0,1,60.63,53a13.73,13.73,0,0,1-3.43-6,10.31,10.31,0,0,1,.91-7.67A53,53,0,0,0,61.38,32,28.47,28.47,0,0,0,63,24.9a16.87,16.87,0,0,0-.39-5.53,16.26,16.26,0,0,0-5.54-8.49l-.34-.3a0,0,0,0,1,0,0l.38-.44h0l.15.13c1.06.88,2.09,1.79,3.09,2.74a55.33,55.33,0,0,1,6.53,7.4A48.1,48.1,0,0,1,72.41,30a40.76,40.76,0,0,1,2.51,8.42A32.52,32.52,0,0,1,75.47,43.94Z"/><path class="cls-1" d="M88.53,72.24V59.91h1.94a9.75,9.75,0,0,1,2.46.22,3.24,3.24,0,0,1,1.76,1.09,2.83,2.83,0,0,1,.66,1.87,2.72,2.72,0,0,1-.3,1.28,3.33,3.33,0,0,1-1,1.08,3.87,3.87,0,0,1,1.65,1.32,3.38,3.38,0,0,1,.51,1.87,3.53,3.53,0,0,1-1.92,3.17,5.31,5.31,0,0,1-2.34.43Zm2.34-10.09v2.59h.52a1.91,1.91,0,0,0,1.27-.36,1.21,1.21,0,0,0,.42-1,1.11,1.11,0,0,0-.4-.91,1.77,1.77,0,0,0-1.2-.34Zm0,4.69V70h.59a3.58,3.58,0,0,0,2-.37,1.24,1.24,0,0,0,.51-1.07,1.51,1.51,0,0,0-.6-1.26,3.24,3.24,0,0,0-2-.46Z"/><path class="cls-1" d="M105.13,63.12h2.29v9.12h-2.29v-1a4.47,4.47,0,0,1-1.34.92,3.72,3.72,0,0,1-1.46.28,4.08,4.08,0,0,1-3.06-1.37A4.78,4.78,0,0,1,98,67.69a4.92,4.92,0,0,1,1.25-3.46,4,4,0,0,1,4.57-1,4.34,4.34,0,0,1,1.33.93ZM102.73,65a2.33,2.33,0,0,0-1.77.75,2.73,2.73,0,0,0-.7,1.92,2.69,2.69,0,0,0,.72,1.94,2.3,2.3,0,0,0,1.75.77,2.36,2.36,0,0,0,1.79-.75,2.77,2.77,0,0,0,.71-2,2.7,2.7,0,0,0-.71-1.93A2.37,2.37,0,0,0,102.73,65Z"/><path class="cls-1" d="M109.9,63.12h2.29v.93a5.69,5.69,0,0,1,1.41-.91,3.42,3.42,0,0,1,1.29-.26,3.12,3.12,0,0,1,2.3.95,3.26,3.26,0,0,1,.8,2.38v6h-2.26v-4a9.78,9.78,0,0,0-.15-2.16,1.52,1.52,0,0,0-.51-.82,1.4,1.4,0,0,0-.9-.28,1.68,1.68,0,0,0-1.19.46,2.51,2.51,0,0,0-.69,1.29,10,10,0,0,0-.1,1.85v3.66H109.9Z"/><path class="cls-1" d="M129.3,65,127.39,66a3.38,3.38,0,0,0-1.06-.78A3.29,3.29,0,0,0,125.1,65a2.89,2.89,0,0,0-2.08.77,2.63,2.63,0,0,0-.79,2,2.52,2.52,0,0,0,.77,1.9,2.74,2.74,0,0,0,2,.74,2.91,2.91,0,0,0,2.39-1l1.8,1.23a4.9,4.9,0,0,1-4.13,1.91,5,5,0,0,1-3.77-1.42,4.68,4.68,0,0,1-1.36-3.34,4.68,4.68,0,0,1,2.51-4.19,5.55,5.55,0,0,1,2.65-.64,5.28,5.28,0,0,1,2.44.55A4.67,4.67,0,0,1,129.3,65Z"/><path class="cls-1" d="M135.81,62.88a4.86,4.86,0,0,1,2.43.65A4.77,4.77,0,0,1,140,70.08a4.6,4.6,0,0,1-1.74,1.76,4.85,4.85,0,0,1-2.44.63,4.55,4.55,0,0,1-3.35-1.39,4.81,4.81,0,0,1,3.34-8.2Zm0,2.16a2.39,2.39,0,0,0-1.78.74,2.65,2.65,0,0,0-.71,1.9,2.7,2.7,0,0,0,.7,1.92,2.33,2.33,0,0,0,1.78.74,2.4,2.4,0,0,0,1.79-.74,2.69,2.69,0,0,0,.71-1.92,2.65,2.65,0,0,0-.7-1.91A2.36,2.36,0,0,0,135.85,65Z"/><path class="cls-1" d="M147.83,59.91h2.35v8a4.16,4.16,0,0,0,.18,1.46,1.46,1.46,0,0,0,.6.68,1.86,1.86,0,0,0,1,.26A2,2,0,0,0,153,70a1.59,1.59,0,0,0,.62-.72,5.61,5.61,0,0,0,.17-1.68V59.91h2.35v7.35a10.62,10.62,0,0,1-.21,2.58,3.95,3.95,0,0,1-2.16,2.38,4.5,4.5,0,0,1-1.79.33,4.37,4.37,0,0,1-2.34-.62,3.6,3.6,0,0,1-1.42-1.54,8.28,8.28,0,0,1-.42-3.13Z"/><path class="cls-1" d="M158.81,63.12h2.29v.93a5.69,5.69,0,0,1,1.41-.91,3.42,3.42,0,0,1,1.29-.26,3.15,3.15,0,0,1,2.31.95,3.26,3.26,0,0,1,.79,2.38v6h-2.26v-4a9.78,9.78,0,0,0-.15-2.16,1.52,1.52,0,0,0-.51-.82,1.4,1.4,0,0,0-.9-.28,1.68,1.68,0,0,0-1.19.46,2.51,2.51,0,0,0-.69,1.29,11.06,11.06,0,0,0-.1,1.85v3.66h-2.29Z"/><path class="cls-1" d="M170.18,59.37a1.4,1.4,0,0,1,1,.43,1.5,1.5,0,0,1,0,2.1,1.36,1.36,0,0,1-1,.43,1.39,1.39,0,0,1-1-.44,1.5,1.5,0,0,1-.43-1.07,1.45,1.45,0,0,1,1.46-1.45ZM169,63.12h2.29v9.12H169Z"/><path class="cls-1" d="M172.59,63.12h2.33l2.31,5.38,2.3-5.38h2.31L178,72.24h-1.49Z"/><path class="cls-1" d="M192.49,68.34h-7.35a2.45,2.45,0,0,0,.85,1.55,2.68,2.68,0,0,0,1.76.57,3.06,3.06,0,0,0,2.21-.9l1.92.91A4.57,4.57,0,0,1,190.16,72a5.37,5.37,0,0,1-2.39.49,4.74,4.74,0,0,1-3.5-1.35,4.59,4.59,0,0,1-1.34-3.39,4.76,4.76,0,0,1,1.34-3.47,4.52,4.52,0,0,1,3.37-1.38,4.69,4.69,0,0,1,3.51,1.38,5,5,0,0,1,1.34,3.64Zm-2.29-1.8a2.27,2.27,0,0,0-.9-1.24,2.56,2.56,0,0,0-1.54-.48,2.72,2.72,0,0,0-1.68.54,2.87,2.87,0,0,0-.84,1.18Z"/><path class="cls-1" d="M194,63.12h2v1.15a2.45,2.45,0,0,1,.85-1,2,2,0,0,1,1.16-.36,2.14,2.14,0,0,1,.93.24l-.72,2a1.43,1.43,0,0,0-.66-.2,1,1,0,0,0-.89.65,6.07,6.07,0,0,0-.36,2.57v4.13H194Z"/><path class="cls-1" d="M205.75,64.39l-1.42,1.42a2.38,2.38,0,0,0-1.56-.86,1,1,0,0,0-.61.17.49.49,0,0,0-.21.4.48.48,0,0,0,.13.34,2.5,2.5,0,0,0,.69.43l.83.42A4.85,4.85,0,0,1,205.42,68a2.62,2.62,0,0,1,.5,1.59,2.65,2.65,0,0,1-.89,2,3.45,3.45,0,0,1-2.4.81,3.79,3.79,0,0,1-3.18-1.56l1.41-1.53a3.31,3.31,0,0,0,.94.76,2.12,2.12,0,0,0,1,.29,1.2,1.2,0,0,0,.73-.22.64.64,0,0,0,.27-.5c0-.36-.33-.7-1-1l-.77-.38q-2.22-1.11-2.22-2.79a2.42,2.42,0,0,1,.84-1.85,3,3,0,0,1,2.13-.77,3.69,3.69,0,0,1,1.67.39A3.76,3.76,0,0,1,205.75,64.39Z"/><path class="cls-1" d="M214.62,63.12h2.29v9.12h-2.29v-1a4.6,4.6,0,0,1-1.34.92,3.74,3.74,0,0,1-1.47.28,4.07,4.07,0,0,1-3.05-1.37,4.78,4.78,0,0,1-1.29-3.41,4.92,4.92,0,0,1,1.25-3.46,4,4,0,0,1,4.57-1,4.34,4.34,0,0,1,1.33.93ZM212.21,65a2.32,2.32,0,0,0-1.76.75,2.69,2.69,0,0,0-.7,1.92,2.73,2.73,0,0,0,.71,1.94,2.45,2.45,0,0,0,3.55,0,2.77,2.77,0,0,0,.71-2,2.7,2.7,0,0,0-.71-1.93A2.38,2.38,0,0,0,212.21,65Z"/><path class="cls-1" d="M219.14,59.6h2.29V72.24h-2.29Z"/></svg>