<?xml version="1.0" encoding="UTF-8"?>
<svg width="50px" height="49px" viewBox="0 0 50 49" version="1.1" xmlns="http://www.w3.org/2000/svg" xmlns:xlink="http://www.w3.org/1999/xlink">
    <title>CB43CE72-BAD0-42DA-B0C4-70E1C11454F6</title>
    <g id="Page-1" stroke="none" stroke-width="1" fill="none" fill-rule="evenodd">
        <g id="LOGIN-BANCAMIGA" transform="translate(-1240.000000, -820.000000)" fill-rule="nonzero">
            <g id="FACEBOOK" transform="translate(1240.000000, 820.000000)">
                <path d="M50,24.5 C49.4443041,57.1666667 0.555695883,57.1666667 0,24.5 C0.555695883,-8.16666667 49.4443041,-8.16666667 50,24.5 Z" id="Path" fill="#FFFFFF"></path>
                <path d="M32.0214477,27.1866922 L32.7989276,22.301101 L27.9329759,22.301101 L27.9329759,19.1345141 C27.9329759,17.8032551 28.616622,16.4978459 30.7882038,16.4978459 L33,16.4978459 L33,12.336046 C33,12.336046 30.9892761,12 29.0723861,12 C25.0643432,12 22.4504021,14.3393968 22.4504021,18.5787458 L22.4504021,22.301101 L18,22.301101 L18,27.1866922 L22.4504021,27.1866922 L22.4504021,39 L27.9329759,39 L27.9329759,27.1866922 L32.0214477,27.1866922 L32.0214477,27.1866922 Z" id="Path" fill="#0481F9"></path>
            </g>
        </g>
    </g>
</svg>