<?xml version="1.0" encoding="UTF-8"?>
<svg width="50px" height="49px" viewBox="0 0 50 49" version="1.1" xmlns="http://www.w3.org/2000/svg" xmlns:xlink="http://www.w3.org/1999/xlink">
    <title>253BB6DB-86A6-4842-9359-A0E5D64EE32C</title>
    <defs>
        <linearGradient x1="-340.243902%" y1="-323.577236%" x2="432.520325%" y2="416.260163%" id="linearGradient-1">
            <stop stop-color="#FDE191" offset="0%"></stop>
            <stop stop-color="#FFBE55" offset="21%"></stop>
            <stop stop-color="#FF6279" offset="38%"></stop>
            <stop stop-color="#E04993" offset="52%"></stop>
            <stop stop-color="#9544CB" offset="74%"></stop>
            <stop stop-color="#5A55E4" offset="100%"></stop>
        </linearGradient>
        <linearGradient x1="-42.1511628%" y1="-38.1782946%" x2="142.054264%" y2="138.178295%" id="linearGradient-2">
            <stop stop-color="#FDE191" offset="0%"></stop>
            <stop stop-color="#FFBE55" offset="21%"></stop>
            <stop stop-color="#FF6279" offset="38%"></stop>
            <stop stop-color="#E04993" offset="52%"></stop>
            <stop stop-color="#9544CB" offset="74%"></stop>
            <stop stop-color="#5A55E4" offset="100%"></stop>
        </linearGradient>
        <linearGradient x1="4.91177873%" y1="6.86695279%" x2="95.565093%" y2="93.6099189%" id="linearGradient-3">
            <stop stop-color="#FDE191" offset="0%"></stop>
            <stop stop-color="#FFBE55" offset="21%"></stop>
            <stop stop-color="#FF6279" offset="38%"></stop>
            <stop stop-color="#E04993" offset="52%"></stop>
            <stop stop-color="#9544CB" offset="74%"></stop>
            <stop stop-color="#5A55E4" offset="100%"></stop>
        </linearGradient>
    </defs>
    <g id="Page-1" stroke="none" stroke-width="1" fill="none" fill-rule="evenodd">
        <g id="LOGIN-BANCAMIGA" transform="translate(-1315.000000, -820.000000)" fill-rule="nonzero">
            <g id="INSTAGRAM" transform="translate(1315.000000, 820.000000)">
                <path d="M50,24.5 C49.4338198,57.1666667 0.55359839,57.1666667 0,24.5 C0.566180171,-8.16666667 49.4464016,-8.16666667 50,24.5 Z" id="Path" fill="#FFFFFF"></path>
                <g id="Group" transform="translate(12.000000, 11.000000)">
                    <path d="M20.6523605,4.82832618 C19.776824,4.82832618 19.0686695,5.53648069 19.0686695,6.41201717 C19.0686695,7.28755365 19.776824,7.99570815 20.6523605,7.99570815 C21.527897,7.99570815 22.2360515,7.28755365 22.2360515,6.41201717 C22.2360515,5.53648069 21.527897,4.82832618 20.6523605,4.82832618 Z" id="Path" fill="url(#linearGradient-1)"></path>
                    <path d="M13.6223176,6.86266094 C9.9527897,6.86266094 6.97854077,9.84978541 6.97854077,13.5064378 C6.97854077,17.1630901 9.96566524,20.1502146 13.6223176,20.1502146 C17.27897,20.1502146 20.2660944,17.1630901 20.2660944,13.5064378 C20.2660944,9.84978541 17.27897,6.86266094 13.6223176,6.86266094 Z M13.6223176,17.7682403 C11.27897,17.7682403 9.36051502,15.8626609 9.36051502,13.5064378 C9.36051502,11.1502146 11.2660944,9.24463519 13.6223176,9.24463519 C15.9785408,9.24463519 17.8841202,11.1502146 17.8841202,13.5064378 C17.8841202,15.8626609 15.9785408,17.7682403 13.6223176,17.7682403 Z" id="Shape" fill="url(#linearGradient-2)"></path>
                    <path d="M18.888412,27 L8.11158798,27 C3.64377682,27 0,23.3690987 0,18.888412 L0,8.11158798 C0,3.64377682 3.63090129,0 8.11158798,0 L18.888412,0 C23.3562232,0 27,3.63090129 27,8.11158798 L27,18.888412 C27,23.3562232 23.3690987,27 18.888412,27 Z M8.12446352,2.54935622 C5.06008584,2.54935622 2.56223176,5.0472103 2.56223176,8.11158798 L2.56223176,18.888412 C2.56223176,21.9527897 5.06008584,24.4506438 8.12446352,24.4506438 L18.9012876,24.4506438 C21.9656652,24.4506438 24.4635193,21.9527897 24.4635193,18.888412 L24.4635193,8.11158798 C24.4635193,5.0472103 21.9656652,2.54935622 18.9012876,2.54935622 L8.12446352,2.54935622 Z" id="Shape" fill="url(#linearGradient-3)"></path>
                </g>
            </g>
        </g>
    </g>
</svg>