<?xml version="1.0" encoding="UTF-8"?>
<svg width="50px" height="49px" viewBox="0 0 50 49" version="1.1" xmlns="http://www.w3.org/2000/svg" xmlns:xlink="http://www.w3.org/1999/xlink">
    <title>A5D4EFF8-1082-499D-AF63-9BD19920CBCA</title>
    <g id="Page-1" stroke="none" stroke-width="1" fill="none" fill-rule="evenodd">
        <g id="LOGIN-BANCAMIGA" transform="translate(-1464.000000, -820.000000)">
            <g id="TIKTOK" transform="translate(1464.000000, 820.000000)">
                <path d="M50,24.5 C49.4338198,57.1666667 0.55359839,57.1666667 0,24.5 C0.566180171,-8.16666667 49.4464016,-8.16666667 50,24.5 Z" id="Path" fill="#FFFFFF" fill-rule="nonzero"></path>
                <g id="Group" transform="translate(14.000000, 12.000000)">
                    <path d="M17.7828335,9.74074074 C19.532575,10.9876543 21.6794209,11.7160494 24,11.7160494 L24,7.28395062 C23.565667,7.28395062 23.1189245,7.2345679 22.697001,7.14814815 L22.697001,10.6419753 C20.3764219,10.6419753 18.229576,9.91358025 16.4798345,8.66666667 L16.4798345,17.7160494 C16.4798345,22.2469136 12.7942089,25.9135802 8.23991727,25.9135802 C6.53981386,25.9135802 4.96380558,25.4074074 3.6483971,24.5308642 C5.14994829,26.0493827 7.23474664,27 9.54291624,27 C14.0972079,27 17.7828335,23.3333333 17.7828335,18.8024691 L17.7828335,9.75308642 L17.7828335,9.75308642 L17.7828335,9.74074074 Z M19.3960703,5.27160494 C18.5025853,4.2962963 17.9193382,3.03703704 17.7828335,1.65432099 L17.7828335,1.08641975 L16.5418821,1.08641975 C16.85212,2.85185185 17.9193382,4.35802469 19.3836608,5.27160494 L19.3836608,5.27160494 L19.3960703,5.27160494 Z M6.52740434,21.0493827 C6.03102378,20.3950617 5.75801448,19.6049383 5.75801448,18.7777778 C5.75801448,16.7037037 7.44570838,15.0246914 9.53050672,15.0246914 C9.91520165,15.0246914 10.2998966,15.0864198 10.672182,15.1975309 L10.672182,10.6666667 C10.237849,10.6049383 9.80351603,10.5802469 9.36918304,10.5925926 L9.36918304,14.1234568 C8.99689762,14.0123457 8.61220269,13.9506173 8.22750776,13.9506173 C6.14270941,13.9506173 4.45501551,15.6296296 4.45501551,17.7037037 C4.45501551,19.1728395 5.29886246,20.4320988 6.52740434,21.0493827 L6.52740434,21.0493827 Z" id="Shape" fill="#FA3E59"></path>
                    <path d="M16.4798345,8.66666667 C18.229576,9.91358025 20.3764219,10.6419753 22.697001,10.6419753 L22.697001,7.14814815 C21.4064116,6.87654321 20.2523268,6.19753086 19.3960703,5.27160494 C17.9193382,4.35802469 16.8645295,2.85185185 16.5542916,1.08641975 L13.302999,1.08641975 L13.302999,18.8024691 C13.302999,20.8641975 11.6153051,22.5432099 9.53050672,22.5432099 C8.30196484,22.5432099 7.22233713,21.962963 6.52740434,21.0617284 C5.29886246,20.4444444 4.45501551,19.1728395 4.45501551,17.7160494 C4.45501551,15.6419753 6.14270941,13.962963 8.22750776,13.962963 C8.6246122,13.962963 9.00930714,14.0246914 9.36918304,14.1358025 L9.36918304,10.6049383 C4.90175801,10.691358 1.30299897,14.3333333 1.30299897,18.8024691 C1.30299897,21.037037 2.19648397,23.0493827 3.6483971,24.5308642 C4.96380558,25.4074074 6.53981386,25.9135802 8.23991727,25.9135802 C12.7942089,25.9135802 16.4798345,22.2469136 16.4798345,17.7160494 L16.4798345,8.66666667 Z" id="Path" fill="#000000" fill-rule="nonzero"></path>
                    <path d="M22.697001,7.14814815 L22.697001,6.20987654 C21.5305067,6.20987654 20.3888314,5.88888889 19.3960703,5.27160494 C20.2771458,6.22222222 21.4312306,6.88888889 22.697001,7.14814815 Z M16.5542916,1.07407407 C16.5294726,0.901234568 16.5046536,0.740740741 16.4798345,0.567901235 L16.4798345,0 L12,0 L12,17.7160494 C12,19.7777778 10.3123061,21.4567901 8.22750776,21.4567901 C7.61944157,21.4567901 7.03619442,21.308642 6.52740434,21.0617284 C7.22233713,21.962963 8.30196484,22.5432099 9.53050672,22.5432099 C11.6028956,22.5432099 13.2905895,20.8765432 13.302999,18.8024691 L13.302999,1.08641975 L16.5542916,1.08641975 L16.5542916,1.07407407 Z M9.36918304,10.5925926 L9.36918304,9.59259259 C8.99689762,9.54320988 8.61220269,9.51851852 8.23991727,9.51851852 C3.68562565,9.51851852 0,13.1851852 0,17.7160494 C0,20.5555556 1.45191313,23.0493827 3.6483971,24.5308642 C2.19648397,23.0493827 1.30299897,21.037037 1.30299897,18.8024691 C1.30299897,14.3333333 4.90175801,10.7037037 9.36918304,10.6049383 L9.36918304,10.6049383 L9.36918304,10.5925926 Z" id="Shape" fill="#53C6CE"></path>
                </g>
            </g>
        </g>
    </g>
</svg>