<?xml version="1.0" encoding="UTF-8"?>
<svg width="50px" height="49px" viewBox="0 0 50 49" version="1.1" xmlns="http://www.w3.org/2000/svg" xmlns:xlink="http://www.w3.org/1999/xlink">
    <title>5FAFA08D-B6A9-475A-A5EC-AF723E1EB920</title>
    <g id="Page-1" stroke="none" stroke-width="1" fill="none" fill-rule="evenodd">
        <g id="LOGIN-BANCAMIGA" transform="translate(-1390.000000, -820.000000)" fill-rule="nonzero">
            <g id="TWITTER" transform="translate(1390.000000, 820.000000)">
                <path d="M50,24.5 C49.4338198,57.1666667 0.55359839,57.1666667 0,24.5 C0.566180171,-8.16666667 49.4464016,-8.16666667 50,24.5 Z" id="Path" fill="#FFFFFF"></path>
                <path d="M37.8859715,16.6595705 C37.0244231,17.0488283 36.0741858,17.274849 35.1492882,17.4255295 C35.5927322,17.3501892 36.2388936,16.5591168 36.4922902,16.2451992 C36.8850549,15.7554877 37.2144705,15.2029927 37.404518,14.6128275 C37.4298576,14.5626007 37.4425275,14.5123739 37.404518,14.4747038 C37.3411688,14.4495904 37.3031593,14.4747038 37.2651498,14.4747038 C36.2262238,15.0271988 35.161958,15.4164567 34.0216733,15.7052609 C33.9329845,15.7303743 33.8569655,15.7052609 33.7936163,15.6424774 C33.7049275,15.5420237 33.6162387,15.4415701 33.5148801,15.3536731 C33.0334265,14.9518586 32.5266333,14.637941 31.9438211,14.3993636 C31.1836313,14.0980026 30.3600923,13.9598789 29.5365533,14.0101057 C28.738354,14.0603325 27.9654944,14.2863532 27.2559839,14.6504977 C26.5464734,15.0146421 25.9129819,15.529467 25.4188585,16.1447456 C24.8993954,16.7851375 24.5193005,17.5259831 24.3165832,18.3296122 C24.1265358,19.0955712 24.1392056,19.8615302 24.2532341,20.640046 C24.2659039,20.765613 24.2532341,20.7907264 24.1392056,20.765613 C19.6920952,20.1126643 16.0051745,18.5305195 13.0150946,15.1527659 C12.8883963,15.0020854 12.8123773,15.0020854 12.7110186,15.1527659 C11.4060261,17.0990551 12.0395176,20.2256747 13.6739257,21.7575927 C13.8893129,21.9585 14.1173698,22.171964 14.3580966,22.3477578 C14.2694078,22.3603145 13.1798024,22.2473042 12.2042254,21.7575927 C12.0775271,21.6822525 12.014178,21.7199226 12.0015081,21.870603 C12.0015081,22.084067 12.0015081,22.2724176 12.0395176,22.4984383 C12.2929142,24.469841 13.6739257,26.2905632 15.5617305,27.0062954 C15.7897874,27.0941923 16.0305142,27.1820893 16.271241,27.2197594 C15.8404667,27.3076563 15.3970227,27.3829966 14.1680491,27.2825429 C14.0160112,27.2574295 13.952662,27.3327697 14.0160112,27.4708935 C14.9409088,29.9696778 16.942742,30.7230801 18.437782,31.1374514 C18.6404992,31.1751215 18.8432165,31.1751215 19.0459338,31.2127916 C19.0459338,31.2253483 19.0205942,31.2253483 19.0079243,31.2504617 C18.5138009,32.003864 16.790704,32.556359 15.9798349,32.8326065 C14.5228044,33.3348747 12.9264058,33.5608954 11.3933563,33.410215 C11.1526295,33.3725449 11.0892804,33.3725449 11.0259312,33.410215 C10.9625821,33.4478851 11.0259312,33.5106686 11.1019502,33.5734521 C11.4186959,33.7743594 11.7354417,33.96271 12.0521875,34.1385039 C13.0277644,34.6533288 14.0540207,35.0677 15.1182864,35.3565042 C20.6296626,36.8633088 26.8378795,35.7583188 30.980914,31.6773897 C34.2370604,28.4754299 35.3773451,24.0554697 35.3773451,19.6355096 C35.3773451,19.4597157 35.5800624,19.3718187 35.7067607,19.2713651 C36.5556393,18.6435299 37.2398102,17.8901276 37.8606319,17.0488283 C38,16.8604777 38,16.6972406 38,16.6219003 L38,16.5967869 C38,16.5214467 38,16.5465601 37.8859715,16.5967869 L37.8859715,16.6595705 Z" id="Path" fill="#00C9FA"></path>
            </g>
        </g>
    </g>
</svg>