<?xml version="1.0" encoding="UTF-8"?>
<svg width="50px" height="49px" viewBox="0 0 50 49" version="1.1" xmlns="http://www.w3.org/2000/svg" xmlns:xlink="http://www.w3.org/1999/xlink">
    <title>0796A19C-5582-40A1-9FAB-A940F5807994</title>
    <g id="Page-1" stroke="none" stroke-width="1" fill="none" fill-rule="evenodd">
        <g id="LOGIN-BANCAMIGA" transform="translate(-1539.000000, -820.000000)" fill-rule="nonzero">
            <g id="YOUTUBE" transform="translate(1539.000000, 820.000000)">
                <path d="M50,24.5 C49.4338198,57.1666667 0.55359839,57.1666667 0,24.5 C0.566180171,-8.16666667 49.4464016,-8.16666667 50,24.5 Z" id="Path" fill="#FFFFFF"></path>
                <path d="M39,21.9550336 C39,18.6651007 36.3494598,16 33.0775012,16 L17.9224988,16 C14.6505402,16 12,18.6651007 12,21.9550336 L12,29.0449664 C12,32.3348993 14.6505402,35 17.9224988,35 L33.0775012,35 C36.3494598,35 39,32.3348993 39,29.0449664 L39,21.9550336 L39,21.9550336 Z M30.0845467,26.0355705 L23.2869892,29.4147651 C23.020667,29.5550336 22.1202442,29.3637584 22.1202442,29.0577181 L22.1202442,22.1208054 C22.1202442,21.8147651 23.033349,21.6234899 23.2996712,21.7765101 L29.8055425,25.3342282 C30.0845467,25.4872483 30.363551,25.8825503 30.0845467,26.0355705 L30.0845467,26.0355705 Z" id="Shape" fill="#FF3C2B"></path>
            </g>
        </g>
    </g>
</svg>